<?xml version="1.0" encoding="utf-8"?>
<!-- Generator: Adobe Illustrator 22.1.0, SVG Export Plug-In . SVG Version: 6.00 Build 0)  -->
<svg version="1.1" id="katman_1" xmlns="http://www.w3.org/2000/svg" xmlns:xlink="http://www.w3.org/1999/xlink" x="0px" y="0px"
	 viewBox="0 0 2048 2048" style="enable-background:new 0 0 2048 2048;" xml:space="preserve">
<style type="text/css">
	.st0{fill:#FFFFFF;}
</style>
<path id="Renkli_Dolgu_1" class="st0" d="M-1490.4,228.6c21.5-1.9,42.6,4,60.4,20.7c32.5,30.4,41.2,83.7,45.9,125.8
	c15.5,139-50.4,272.7-106.3,395.7c-2.6,5.8-5.3,11.7-9.7,16.3c-6.5,6.9-16,10.4-19.3,0.2c-3.4-10.3,5.6-25.1,10-33.7
	c45.8-88.3,70.6-197.6,65.6-297c-1.8-35.6-7.9-71.1-19-105c-7.2-22-20.1-66.5-50.8-63c-13.5,1.5-25,10.3-35.2,19.3
	c-105.4,92.2-157.2,228.4-201,357.5c-49.8,146.8-64,300.5-43.6,453.4c4.2,31.5,12,63,21.6,93.3c13.3,42.1,37.3,89.2,81.3,105
	c49.2,17.6,90.6-33,110.9-71.2c23.8-44.6,31.6-97.9,19.4-147.2c-3.1-12.5-7.4-25-6.3-37.8c1.1-12.8,9.6-26.1,22.3-27.7
	c1.2-0.1,2.5-0.2,3.7,0.2c3.2,0.9,4.9,4.3,6.2,7.4c23.4,57,15.1,122.8-5.3,179.4c-16.4,45.6-39.6,97.7-86,119.5
	c-53.5,25.3-115.5-7.7-147.2-52.3c-17.3-24.2-28.8-52.1-38.2-80.3c-49-147.5-38.6-305.1-4.8-454.7c8.4-37.2,18.6-74,30.4-110.2
	c23.3-70.9,53.2-139.7,89.4-205c33.1-59.9,70.4-124.6,123.7-169c13.5-11.2,28.1-21,43.9-28.6
	C-1515.9,233.6-1503.1,229.8-1490.4,228.6z M-561.1,670.8c-4-5.2-14.3-3.5-27.3-0.6c-19.1,4.3-37.1,12.5-55.9,18.3
	c-30.3,9.3-60.5,18.7-89.5,31.5c-12.5,5.5-26,15.3-39.9,16c-7.1,0.4-15.4-3.2-16.6-10.2c-0.3-2,0-4.1,0.7-6.1
	c6.4-18.3,43-26,58.8-31.8c60.9-22.5,122.4-44.1,185.4-60.1c5.4-1.4,9.8-29.1,10.9-33.5c9.5-35.7,20-71.1,32.2-106
	c10.4-29.6,20.1-66.5,39.3-91.6c7-9.1,18.7-18.7,30.4-10.8c30.5,20.8-16.2,66.4-27.7,85.3c-15.1,24.7-27.1,51.2-36.8,78.5
	c-4.7,13.3-8.9,26.8-12.7,40.5c-1.7,6.1-7.3,17.4-5.4,23.7c3.3,10.9,22.2-0.5,31.2-3.2c22.5-6.7,45.1-13,67.8-18.9
	c11.8-3,23.5-5.9,35.4-8.7c4.3-1,24.2-8.5,28.3-5.2c8,6.6,16.2,9.8,14.7,21.5c-1.5,12.3-5.4,24.2-11.5,35
	c-7.3,13-14.2,10.7-27.3,9.4c-14.4-1.5-28.9-1.8-43.4-1.4c-29.1,0.9-58,5.2-86.5,10.9c-5.5,1.1-11.1,2.3-15.6,5.6
	c-13.9,10.2-11.6,35.5-13.8,50.8c-6.8,46.7-14,93.4-20.2,140.2c-10.8,81.1-15.1,154.5-2.9,241.9c1.3,9,8.3,25.7,19.9,23
	c6.6-1.6,11.8-12.6,14.7-17.9c8.2-14.8,14.4-31.3,19.3-47.5c8.8-29.4,11.7-60.5,7.9-91c-6.2-50.2-30.2,14.1-43.3,3.5
	c-4.6-3.7-8.9-7.7-13-12c-9.5-10.1,23.1-44,29.7-48.9c5.6-4.2,12.1-7.8,19.1-7.9c43.9-0.2,36.6,82.7,33.9,109.9
	c-4.2,42.3-16.4,98.7-45.6,131.1c-4.7,5.2-10.2,9.9-16.9,11.9c-32.6,9.6-48.4-28.9-53.5-51.8c-32.8-148.4,5-260.4,25.3-405.2
	C-560.1,679.3-558.7,673.9-561.1,670.8z M-970,428.3c14.6-2.8,27.2,6.6,31.6,25.6c5.1,22.3,0.2,47.5-4.4,69.4
	c-11.7,56-32.6,110.5-55.5,162.7c-6.4,14.5-12.6,29.6-20.8,43.3c-7.8,13.1-28.6,43.7-45.3,24.6c-9.8-11.2,15-37.5,20.4-45.8
	c42.1-65.5,63.6-144.1,60-221.9c-34.1,23.5-55.4,70.3-72.9,106.6c-53.3,110.5-83,234.9-80.9,357.7c0.1,3.9,0.4,8.2,3.2,10.9
	c9.8,9.1,25.4-5.1,35.8,9.7c6,8.5,4.3,21.6-3.8,28.2c-8.1,6.6-17.9,3.2-26.8,0.5c-11.4,27.8,4.2,76.2,15.2,102.5
	c3.8,9.1,8.3,18.1,10.4,27.8c2.1,9.7,1.4,20.5-4.5,28.5s-17.7,11.9-26.2,6.8c-6.3-3.8-9.3-11.3-11.6-18.3
	c-8.7-26.1-14.5-53.2-17.3-80.5c-1.2-11.5,3.6-47.5-5.5-56.8c-6.7-6.8-12.7,0.5-22.5-1.2c-6.9-1.2-13.4-7.7-11.9-14.5
	c1.1-5.3,6.3-8.7,11.4-10.6c6.8-2.5,17.4-4.6,21.5-11.5c7-11.8,1.2-35.1,4-50c4.7-35.3,9.3-70.7,14-106
	c24.6-104.6,54.1-204.9,106.7-299.3c15.4-27.7,32.5-54.9,55.4-76.8C-983.5,433.3-976.6,429.6-970,428.3z M-1173.1,441.7
	c89.6-22.2,40.6,226.3,33.3,263.1c-5,25.2-7.5,51.6-16,76.3c-4.1,12-9.5,26.1-19.4,34.6c-10.7,9.1-32.9,11.8-24.4-9.7
	c20-50.8,40.8-95,46.2-150.2c3-30.5,2.8-61.3-0.5-91.8c-0.8-7.7-17.7-82.5-19-81.5c-54.1,44.4-75.6,112.8-93.6,178
	c-32.1,116.2-48.7,235.3-41.9,355.9c1.2,21.2,24.4,14.3,37.5,9.5c8.1-2.9,23.9-15.1,32.8-11.8c0,0,0,0,0.1,0
	c11.5,4.2,4.3,15.3-2.4,20.8c-15.4,12.7-51.4,23.4-56.4,44.2c-5.2,21.9,5.3,47.3,11.7,68c9,29.2,20.6,57.8,31.2,86.5
	c2.1,5.8,4.2,12.7,0.6,17.8c-3.2,4.5-9.7,5.4-15,4.1c-10.6-2.7-18.1-12.2-23.5-21.7c-23.6-41.5-26.2-93.1-33.2-139.3
	c-0.9-6.2-2.3-13-7.2-17c-2.9-2.3-6.7-3.4-8.8-6.4c-5.7-8.5,9.8-28,11.8-37.1c5-22.7,1.3-47,0.9-70.1c-0.4-26.3-0.3-52.7,0.6-79
	c1.9-51.5,6.8-102.9,16.3-153.6c17.4-92.7,50.5-183.5,104.6-260.7c5.9-8.4,12.3-16.9,20.8-22.7
	C-1181.5,444.7-1177.2,442.7-1173.1,441.7z M-826.1,764.7c1.9-0.3,3.7-0.4,5.6-0.4c13-0.1,23.2,6.1,27.4,18.9
	c2.7,8.4,2.3,17.5,0.7,26.2c-7.9,43.7-37.3,79.5-69.1,108.8c-16.5,15.2-34.7,28.4-52.4,42.1c-12.7,9.8-32.5,19.5-38.7,35.4
	c-5.2,13.4,4.9,43.3,23,40.8c3.4-0.5,6.4-2.4,9.2-4.3c33.7-23,45.9-67.4,78-89.8c7-4.9,17-6.7,24.2-1.9c6.8,4.5,9.2,13.6,9,21.8
	c-1.1,44-50.3,76-84.2,95.2c-17.9,10.2-40.4,15.5-59.1,6.9c-35.2-16.2-37-67.2-31.8-100c12.6-79.2,65.2-145.7,131.5-188.2
	C-844.6,770.8-835.6,766.1-826.1,764.7z M-842.4,813.6c-24.2,4.4-46.8,27.9-61.8,46.4c-11,13.6-43.4,47.9-34.5,66.4
	c39.8-15.3,69-63.1,92.2-96.5C-843,824.8-840.5,819.8-842.4,813.6z M-646.5,821.9c5.2-2.3,17.1,2.4,20.8,6.1c7,7,4.5,15,1.5,23.3
	c-7.1,19.6-20,36.4-38.2,47c-10.9,6.3-11.6,13.2,1.3,15.7c9.7,1.9,18.4-2.6,27.2-5.8c4.1-1.5,22.9-9.6,18.9,1.7
	c-6.5,18.6-25.5,26.8-44.1,25.7c-10.5-0.6-21.1-3.8-29-10.6c-9.8-8.4-12.9-20.6-10.5-33c4.8-24.1,18.1-51.4,36-63
	C-657.1,826.6-651.8,824.2-646.5,821.9z M-640.5,845.9c-9.3,8.1-18.6,15-21,30h3c6.9-9.5,19.2-16.8,22-30H-640.5z M-1046.5,850.9
	c4.7-0.1,8.3,0.3,11,2c24,9.8,26.1,58.2-5.2,58.8c-7.5,0.1-15.1-1.9-20.9-6.6c-12.5-9.9-13.2-32-3.9-44.3
	C-1061.3,855.4-1052.5,854.6-1046.5,850.9z M-756.5,851.9c9.6-0.1,18.1,0.2,24,4c15.1,9.8,25.7,55,20,78c-6.3,3.7-6.6,8.9-16,10
	c-1.7-0.7-3.3-1.3-5-2c-7.5-12-9.4-31-15-45c-0.7,0.3-1.3,0.7-2,1c-10.1,16.1,1.7,61-12,74c-3.6,2.6-10.3,2.5-14,0
	c-4-1.5-8.3-5.2-10-9c-4.2-6.4-0.8-21.5,0-30c2.2-25.3,1-51,12-68C-770.6,858.9-762,856.4-756.5,851.9z M-1026.5,920
	c0.2,0,0.3,0,0.5,0c4.4,0.2,9,2.3,10.9,6.3c1.9,3.9,1,8.5,0.2,12.7c-3.3,18.4-3.1,37.6,2.6,55.4c2.3,7.2,5.5,14.2,6,21.7
	c0.5,7.5-2.4,15.9-9.2,19.1c-6.1,2.8-13.5,0.7-18.7-3.6c-20.5-16.9-48.7-78.1-21.8-98.2c5.4-4,11.2-7.4,17.3-10.2
	C-1034.8,921.4-1030.7,919.9-1026.5,920z M-1414.3,922.6c23.9-6,49.8,16.6,59.3,36.8c10.2,21.4,10,46.6,4.3,69.6
	c-5.5,22.5-18.2,45.7-40.2,53.1c-19.6,6.6-42.3-1.9-55.7-17.6c-13.4-15.7-18.4-37.4-17.2-58c1.6-27.2,15.8-65.6,40.8-80.2
	C-1420.1,924.5-1417.2,923.4-1414.3,922.6z M-1399.5,959.7c-14.4-0.1-23.9,31.4-24.8,41.2c-1,9.8,3.1,41.1,19,37.5
	c4.8-1.1,8.5-5,11.4-9c12.8-17.2,18.5-42.8,6.2-61.8c-1.8-2.8-4.1-5.4-7.1-6.9C-1396.4,960.1-1398,959.8-1399.5,959.7z"/>
</svg>
